<svg width="175" height="496" viewBox="0 0 175 496" fill="none" xmlns="http://www.w3.org/2000/svg">
<path d="M19 493C19 476.992 17.4364 461.624 15.5555 445.722C11.3368 410.054 12.0226 373.978 7.05555 338.278C1.10645 295.519 1.86023 250.53 15.6111 209.278C19.5213 197.547 21.5427 181.866 30.2222 172.222C31.239 171.092 30 161.734 30 159.889C30 149.889 30 139.889 30 129.889C30 123.792 29.0459 116.547 31.4444 110.722C33.0694 106.776 34.9178 106.014 38.3889 103.611C40.7542 101.974 46.5574 116.095 46.9444 118.611C48.4084 128.127 49.3973 139.673 46.5 148.944C45.4879 152.183 46.1099 156.602 44.5 159.5C41.3104 165.241 44.7301 155.583 45.5 153.444C49.0878 143.478 55.22 134.759 66 132.222C69.7417 131.342 82.3705 134.163 78.5555 140.222C76.3631 143.704 72.8845 146.116 70 149C68.9579 150.042 64.8028 153.103 64.6111 154.444C64.2774 156.781 100.792 152.412 104.333 153.056C106.241 153.402 108.551 161.15 109 162.944C111.142 171.511 102.004 173.713 94.7778 175.778C86.3096 178.197 78.0688 179 69.2222 179C61.5555 179 53.8889 179 46.2222 179C44.0955 179 41.417 178.466 39.7778 179.778C38.4968 180.803 36.4074 183 40 183C53.4088 183 66.5657 180.786 79.9444 179.5C90.3056 178.504 101.576 177.808 111.5 174.5C116.894 172.702 121.945 170.103 127.222 168C133.576 165.468 142.284 164.526 148 160.889C157.921 154.576 170.632 143.439 171 130.556C171.146 125.437 171.9 119.455 168.222 115.778C164.44 111.996 159.449 111.854 154.444 110.944C144.361 109.111 156.728 93.2106 155.944 86.9444C155.374 82.382 153.919 81.2522 150.556 78.5C145.386 74.2707 135.804 70 129.056 70C125.464 70 121.552 69.5481 118 70.0555C113.15 70.7483 113 73.2037 113 66.3333C113 48.5346 103.794 30.5963 95.6667 15.1111C92.7832 9.61695 91.9572 6.37143 86.7778 4.77777C77.9864 2.07272 71.4192 6.80213 65.2222 12.7778C61.762 16.1144 60.7641 19.9679 58.4444 23.9444C57.8889 24.8967 55.6867 31.2295 55.4444 31.3333C54.4098 31.7767 45.7107 23.4741 43.5555 22.5555C39.6712 20.8999 35.9827 18 31.6111 18C27.6026 18 22.7469 16.919 19.5 19.4444C8.31443 28.1443 12.1092 52.8502 16.2222 64.7778C18.0749 70.1506 19.9541 75.6427 21.2222 81.2222C22.671 87.597 26.4678 93.2398 28.2222 99.5555C30.1219 106.395 35 113.803 35 121" stroke="#0C41FF" stroke-width="6" stroke-linecap="round"/>
</svg>
