<svg width="306" height="530" viewBox="0 0 306 530" fill="none" xmlns="http://www.w3.org/2000/svg">
<path d="M273 527C273 523.31 273.798 520.281 275 516.778C279.162 504.649 282.872 492.279 286.556 480C298.557 439.996 307.995 397.553 298.667 355.833C287.096 304.086 242.158 275.925 200.222 250.222C165.718 229.075 128.451 210.805 96.8889 185.333C68.871 162.722 67.6236 127.151 60.5556 94.1667C58.0841 82.6331 56 71.7964 56 60C56 57.2927 52.9647 56.8334 50.9444 55.4445C42.8713 49.8942 37.9721 39.449 35.3333 30.3333C33.8228 25.1151 32.9109 19.8711 31.9444 14.5556C31.913 14.3826 30.427 11.3649 31.2222 11.4445C34.367 11.7589 36.7028 19.665 38 22C42.9096 30.8372 46.5805 40.3097 51.5 49.0556C52.3518 50.5698 54 58.1926 54 53C54 41.6482 54 30.2963 54 18.9445C54 15.1538 53.1759 8.17714 56 5.00001C56.3386 4.61913 57.3622 2.36786 57.7778 3.66668C59.1878 8.0729 58.6561 13.7716 59.4444 18.3889C61.2426 28.9211 62 39.7874 62 50.5C62 52.7922 62 48.8594 62 48.5556C62 44.5598 64.5027 41.1821 67 38.2222C72.3418 31.8912 78.2867 26.2855 86.5 24.5C87.4758 24.2879 94.9634 22.6541 93.7778 23.4445C90.3562 25.7255 87.4318 27.5682 84.4445 30.5556C79.9426 35.0574 76.7995 40.0894 72.4445 44.4445C68.3989 48.49 64.0192 51.848 59.5556 55.5C57.2593 57.3788 54.4314 58.2585 52.2222 60.2222C51.6948 60.6911 55.9089 58.1731 56.5556 58.0556C67.2551 56.1102 78.241 53.0617 89.3889 52C101.48 50.8485 113.167 48 125.389 48C127.097 48 136.569 46.717 137.778 49C139.458 52.1733 132.921 54.6973 131 55.4445C122.259 58.8437 111.535 57 102.444 57C88.2282 57 74.0418 59 60 59C53.7785 59 72.9985 59.2991 78.3333 62.5C81.0571 64.1343 83.6003 67.8633 85.7778 70.2222C91.3221 76.2286 84.2736 72.7729 80.9445 71.5C76.5277 69.8113 67.2502 68.2031 64.7778 64C61.987 59.2557 55.1566 61.144 51.4444 63C46.7603 65.3421 42.837 68.5474 38.5 71.3889C35.439 73.3944 31.5676 77.0497 28 77.7778C25.2251 78.3441 22.4292 79.5954 19.5 78.9445C15.7222 78.1049 16.8134 74.7079 19.4444 73C24.8481 69.4924 33.9752 65.2534 40.5556 64C42.8881 63.5557 48.9245 61.5581 50.2222 59.2222C50.5919 58.5567 48.7048 59.0185 47.9444 59.0556C44.6476 59.2164 41.3806 59.549 38.1111 60C33.3584 60.6556 28.7374 61 23.9444 61C18.4987 61 13.2586 61.3244 8 59.7778C2.18409 58.0672 0.764469 50.1063 7.88889 50C14.8636 49.8959 21.0041 51.5846 27.7778 52.5C31.8278 53.0473 36.1001 52.4906 40.0556 53.5556C42.098 54.1055 43.8692 55 46 55C48.1875 55 49.2995 56 51.3889 56C55.9972 56 42.2716 54.2846 38 52.5556C32.7037 50.4118 29.7729 48.4448 27.5 43.4445C26.9734 42.286 25.957 38.0614 27 38C33.9084 37.5936 37.2594 42.8149 42 45.7778C46.7875 48.77 51.1953 52.7969 56 56" stroke="#0C41FF" stroke-width="6" stroke-linecap="round"/>
</svg>
