<svg width="419" height="423" viewBox="0 0 419 423" fill="none" xmlns="http://www.w3.org/2000/svg">
<path d="M3 420C3 414.403 5.23164 410.432 7.44444 405.333C11.5358 395.905 18.998 388.154 25.4444 380.333C34.5585 369.277 43.6461 358.131 54.8889 349.111C80.3281 328.701 103.212 304.956 132.222 289C156.574 275.607 181.373 264.583 207.222 254.778C214.762 251.918 222.371 247.781 229.333 243.667C230.714 242.851 242.419 236.106 239.778 236C232.267 235.7 196.014 238.79 203.444 223C206.806 215.857 215.286 212.629 221.667 208.889C243.383 196.159 270.184 191.487 294.667 187.444C324.578 182.505 353.767 177.123 383 169.222C388.938 167.617 398.121 164.547 402.778 160.222C406.319 156.934 409.833 153.537 414 151.222C418.034 148.981 410.497 149.121 410 148.5C409.259 147.574 405.874 146.282 404.833 145.556C392.362 136.855 380.911 127.711 366.278 122.833C358.798 120.34 349.752 122.401 342.611 118.556C337.899 116.018 337.615 111.107 336.5 106.278C333.371 92.7192 334.613 81.5287 336.5 67.9445C338.917 50.5386 337 33.3093 337 15.6667C337 12.6476 338.104 7.07476 335.944 4.55557C333.169 1.31725 326.855 5.86492 325.222 8.00001C321.258 13.1837 318.214 19.8504 316 26C313.804 32.1002 307.817 38.5829 304 43.7778C292.947 58.8222 284.981 76.0628 273.778 91C266.405 100.83 256.601 112.69 245.444 118.333C236.058 123.082 224.808 127 214.222 127C207.495 127 204.125 108.111 203.222 103.667C200.091 88.2522 200.916 71.5674 200 56C199.849 53.4413 197.096 57.5222 196.778 58.2222C195.406 61.2412 193.193 63.8311 191.667 66.7778C189.423 71.1104 188.885 75.8908 187 80.3333C182.492 90.9596 178.928 101.612 175.611 112.667C172.038 124.577 168.369 138.095 166.944 150.444C165.177 165.765 166.099 186.257 156.5 199.056C151.552 205.653 141.398 214 132.944 214C119.734 214 107.616 203.635 97.4444 196.5C89.5365 190.953 82.328 185.166 74.7222 179.278C73.3964 178.251 69.3619 175.111 67.5556 175.111C62.2098 175.111 68.7447 206.358 69.5556 209.833C72.6107 222.927 78.7642 237.802 75.4444 251.556C71.751 266.857 62.3768 279.444 56.9444 294.111C51.7822 308.049 47.9316 322.59 41.6111 336.056C36.38 347.2 29.6393 356.388 21.7778 365.778C18.8178 369.313 9.19103 377.269 9 383C8.82238 388.329 15.0063 374.19 18 369.778C20.7327 365.751 23.6954 362.488 27 359C35.6556 349.864 47.0515 341.118 57.7778 334.222C62.8915 330.935 64.5678 324.942 68.6667 320.778C78.3968 310.893 90.8206 301.216 98.4444 289.556C107.989 274.958 116.236 259.172 127.944 246C143.414 228.597 162.188 213.621 178.556 196.944C192.836 182.395 208.317 168.655 224.389 156.111C233.999 148.61 245.468 143.841 255.111 136.389C265.613 128.274 275.58 118.846 284.722 109.222C290.544 103.094 297.761 96.2019 301.444 88.5C304.718 81.6558 307.911 74.9742 309.889 67.5556C310.805 64.1211 313 59.5752 313 56" stroke="#0C41FF" stroke-width="6" stroke-linecap="round"/>
</svg>
