<svg width="254" height="576" viewBox="0 0 254 576" fill="none" xmlns="http://www.w3.org/2000/svg">
<path d="M183 573C179.91 557.55 182.389 541.198 179.889 525.5C175.844 500.107 167.173 478.003 149.722 458.778C128.676 435.591 99.9703 421.456 72.8889 406.444C57.3975 397.857 40.955 389.81 27 378.778C23.1922 375.768 20.1118 371.842 16.2223 369C12.9498 366.609 15.7903 367.289 18 366.5C21.6079 365.211 25.0827 364.538 28.9445 364.056C40.1032 362.661 52.4783 364 63.6667 364C70.376 364 102.304 367.351 95.8334 352.389C91.9418 343.39 84.3597 334.94 77.7778 327.778C63.7513 312.514 58.0714 291.272 49.2223 273C32.9204 239.34 21.7598 203.738 6.88892 169.5C5.48513 166.268 0.041513 156.259 7.61114 161.5C11.7163 164.342 15.6274 166.34 19.0556 170.111C22.375 173.762 25.2527 177.899 28.2223 181.833C33.1268 188.332 39.0533 194.219 43.7223 200.833C50.8756 210.967 58.6675 221.045 68.7778 228.556C70.2933 229.681 72.1677 231.337 73.2223 228.889C77.3614 219.28 77.2484 207.43 78.2223 197.222C82.0469 157.134 80.3192 117.025 81.1111 76.8333C81.4728 58.4814 81.6177 39.6601 83.5556 21.3889C84.1251 16.0187 84.5676 9.87222 86.4445 4.77777C86.9831 3.31576 86.8802 3.22451 87.4445 4.66665C89.5303 9.99699 91.4116 15.4341 92.7778 21C97.2294 39.136 100.727 57.7101 104.556 76C108.86 96.5664 113.057 115.721 115 136.667C116.234 149.965 117.901 163.624 120.222 176.778C120.765 179.852 121.448 182.728 123 185.444C124.576 188.203 145.08 178.65 145.944 178.389C169.728 171.219 194.048 169.087 218.556 166.222C222.025 165.817 225.364 163.892 222.222 168C218.302 173.127 211.177 176.159 206.056 180C201.018 183.778 195.834 187.527 191 191.556C183.661 197.672 178.914 205.59 175.556 214.444C169.895 229.367 169.114 247.819 169 263.556C168.916 275.128 167.25 289.387 170.556 300.722C172.414 307.095 174.999 302.739 179 299C193.483 285.467 208.909 270.105 228.222 263.667C230.493 262.91 251.118 258.201 251 262.444C250.774 270.588 245.377 279.672 243.111 287.278C239.213 300.365 238.232 314.25 235 327.5C230.505 345.932 224.344 363.669 219 381.778C213.46 400.552 210.158 419.356 206.056 438.5C201.527 459.633 194.31 480.272 194 502C193.901 508.906 193 515.775 193 522.778C193 525.396 193.143 527.571 192 530C191.47 531.126 190.305 536.952 189 537.278C187.79 537.58 180.414 505.093 179.611 500.722C178.174 492.896 179.287 484.718 177 477C175.192 470.899 174.11 464.6 173 458.333C169.589 439.073 164.119 420.495 160 401.444C154.91 377.902 148.378 353.934 140.667 331.167C133.935 311.292 128.965 290.849 122 271C117.548 258.313 114.029 245.45 110.389 232.389C103.447 207.478 95.7879 183.753 92.7778 158C91.6916 148.707 92 139.358 92 130" stroke="#0C41FF" stroke-width="6" stroke-linecap="round"/>
</svg>
