<svg width="121" height="478" viewBox="0 0 121 478" fill="none" xmlns="http://www.w3.org/2000/svg">
<path d="M48.4298 474.865C53.1103 381.255 50.2419 286.792 50.2419 192.987C50.2419 152.461 52.4909 111.255 50.2419 70.7719C49.7495 61.9097 30.6567 88.545 30.309 88.8927C28.3363 90.8654 17.7293 104.231 17.6245 100.772C17.2814 89.4518 17.8204 84.8254 22.96 75.4028C25.2929 71.1258 30.6472 69.1353 32.0204 64.329C33.0062 60.8787 34.8523 56.7954 36.6513 53.5572C40.1562 47.2483 33.4386 46.2094 28.4969 45.5035C22.2851 44.6161 17.1091 41.3241 13.1949 36.3424C11.0295 33.5864 -5.94707 1.00426 9.57078 3.82569C21.0467 5.91221 25.0555 30.1281 33.9332 36.3424C39.0683 39.937 56.7317 -3.04281 67.96 5.93978C76.6865 12.921 60.0462 24.5826 59.3023 30.9062C58.6283 36.6351 40.4681 50.8391 54.2687 50.8391C66.452 50.8391 78.0609 52.6511 90.3089 52.6511C93.1834 52.6511 117.013 49.7775 117.289 54.4632C117.564 59.1451 116.679 62.9148 112.859 66.0404C103.137 73.9946 74.4088 68.9598 62.9264 68.9598C60.6661 68.9598 55.6921 67.596 56.8862 68.3558C62.4706 71.9096 68.204 76.0495 72.8929 80.7383C79.952 87.7975 85.8044 101.611 88.0942 111.342C90.6123 122.044 84.3428 120.965 80.0405 112.752C74.9328 103.001 73.3345 88.2269 65.7452 80.6377C59.1302 74.0227 58.0946 64.9331 48.4298 61.7115" stroke="#0C41FF" stroke-width="6" stroke-linecap="round"/>
</svg>
