<svg width="320" height="305" viewBox="0 0 320 305" fill="none" xmlns="http://www.w3.org/2000/svg">
<path d="M315 302C316.118 300.742 316 299.662 316 298.056C316 291.222 316 284.389 316 277.556C316 256.927 312.984 238.584 309.444 218.278C305.539 195.873 303.76 172.476 298.778 150.333C293.043 124.844 285.88 102.48 274.333 78.7778C254.416 37.8941 207.779 16.2373 165.833 5.61112C152.01 2.10931 135.931 3.18577 122.944 8.05556C110.287 12.8021 97.6461 28.0979 89.5555 38.5C86.4399 42.5058 78.6852 42.1734 74.2222 45C67.5077 49.2525 59.9913 53.0145 54.5555 58.9445C50.9402 62.8885 46.9357 66.1169 43.7778 70.4445C38.0211 78.3332 35.1619 88.025 32.5555 97.3333C30.2039 105.732 30.7065 117.263 42.2222 114C48.5762 112.2 54.2109 108.277 57.5555 102.5C59.2583 99.5588 61.1139 97.5471 62.2222 94.2222C62.8809 92.2461 63.1814 90.1968 64.7778 88.7778C64.8461 88.717 65 94.056 65 95C65 97.8519 65 100.704 65 103.556C65 108.303 66.6141 116.426 70 120C73.7994 124.011 78.881 124.119 82.9444 120.056C86.4047 116.595 86.0976 110.623 87.2222 106C88.1666 102.118 88.9912 98.0709 91 94.5556C91.5385 93.6132 94.9563 106.536 95.4444 108C97.9551 115.532 102.986 118.926 107.5 124.944C108.654 126.483 112.718 131.858 114.222 129C120.201 117.641 122.241 102.767 122 90C121.841 81.5603 120 73.098 120 64.6111C120 62.0309 119.305 57.4066 118.222 55C116.573 51.334 112.747 42.2849 108.444 41.0556C106.767 40.5762 104 36.9644 104 41C104 44.5318 106.682 48.2939 107.944 51.5556C116.794 74.4178 128 95.1699 128 120.556C128 136.62 125.323 150.306 122.611 166.278C119.819 182.719 117.716 198.104 107 211.5C102.398 217.253 90.1804 193.21 89.5 189.944C89.2699 188.84 87.2189 170.335 87 170.444C85.7214 171.084 85.4987 178.184 85 179.556C81.1106 190.251 75.6352 197.92 67.7778 205.778C61.5116 212.044 50.507 203.689 45.7778 198.778C42.9281 195.818 40.6425 191.109 40.0555 187C39.5804 183.674 38.3811 187.79 37.5555 189.222C36.0857 191.773 33.3226 194.137 32.2222 196.778C30.0161 202.072 14.0262 203.803 9.99999 200C-2.03483 188.634 3.56067 158.105 13 147C17.1918 142.068 19.8464 134.863 22.7778 129C25.7325 123.091 29.1553 117.689 32 112" stroke="#0C41FF" stroke-width="6" stroke-linecap="round"/>
</svg>
