<svg width="287" height="419" viewBox="0 0 287 419" fill="none" xmlns="http://www.w3.org/2000/svg">
<path d="M3 416C4.62132 352.768 12.7342 286.73 38.6111 228.444C52.7754 196.54 72.0321 167.094 96.6667 142.333C114.439 124.471 134.088 109.473 153.222 93.2222C171.614 77.6021 190.989 63.2424 209.833 48.1667C212.033 46.4071 219.726 43 215.5 43C213.815 43 213.625 41.42 211.944 41C207.986 40.0103 203.325 37.5586 200 35.2222C195.559 32.1012 190.829 27.3722 191 21.5556C191.2 14.7514 198.93 15.5609 204 16.2222C212.312 17.3064 213.284 21.5308 214.778 28.6667C214.889 29.1969 216.185 35.7631 217.222 35.5556C219.117 35.1766 219.225 27.4857 219.5 25.8333C220.529 19.6578 221.516 9.66626 227.667 6.44445C229.538 5.46444 234.5 1.1369 235.222 4.66667C236.114 9.02596 236.206 13.617 235.944 18.0556C235.727 21.7466 232.743 32.4058 229.5 35C227.824 36.341 234.359 35.9932 234.944 35.9445C241.3 35.4148 247.66 33.9933 254 33.2222C259.964 32.4969 266.932 34.8729 272.389 37.0556C276.169 38.5677 281.953 39.8941 283.778 44C285.825 48.6073 269.425 48.0638 267 48C255.198 47.6894 243.858 42 232 42" stroke="#0C41FF" stroke-width="6" stroke-linecap="round"/>
</svg>
